<svg width="166" height="24" viewBox="0 0 166 24" fill="none" xmlns="http://www.w3.org/2000/svg">
<path d="M165.547 12L154 0.452995L142.453 12L154 23.547L165.547 12ZM6.41667 14C7.52124 14 8.41667 13.1046 8.41667 12C8.41667 10.8954 7.52124 10 6.41667 10V14ZM19.25 10C18.1454 10 17.25 10.8954 17.25 12C17.25 13.1046 18.1454 14 19.25 14V10ZM32.0833 14C33.1879 14 34.0833 13.1046 34.0833 12C34.0833 10.8954 33.1879 10 32.0833 10V14ZM44.9167 10C43.8121 10 42.9167 10.8954 42.9167 12C42.9167 13.1046 43.8121 14 44.9167 14V10ZM57.75 14C58.8546 14 59.75 13.1046 59.75 12C59.75 10.8954 58.8546 10 57.75 10V14ZM70.5833 10C69.4788 10 68.5833 10.8954 68.5833 12C68.5833 13.1046 69.4788 14 70.5833 14V10ZM83.4167 14C84.5212 14 85.4167 13.1046 85.4167 12C85.4167 10.8954 84.5212 10 83.4167 10V14ZM96.25 10C95.1454 10 94.25 10.8954 94.25 12C94.25 13.1046 95.1454 14 96.25 14V10ZM109.083 14C110.188 14 111.083 13.1046 111.083 12C111.083 10.8954 110.188 10 109.083 10V14ZM121.917 10C120.812 10 119.917 10.8954 119.917 12C119.917 13.1046 120.812 14 121.917 14V10ZM134.75 14C135.855 14 136.75 13.1046 136.75 12C136.75 10.8954 135.855 10 134.75 10V14ZM147.583 10C146.479 10 145.583 10.8954 145.583 12C145.583 13.1046 146.479 14 147.583 14V10ZM0 14H6.41667V10H0V14ZM19.25 14H32.0833V10H19.25V14ZM44.9167 14H57.75V10H44.9167V14ZM70.5833 14H83.4167V10H70.5833V14ZM96.25 14H109.083V10H96.25V14ZM121.917 14H134.75V10H121.917V14ZM147.583 14H154V10H147.583V14ZM165.547 12L154 0.452995L142.453 12L154 23.547L165.547 12ZM6.41667 14C7.52124 14 8.41667 13.1046 8.41667 12C8.41667 10.8954 7.52124 10 6.41667 10V14ZM19.25 10C18.1454 10 17.25 10.8954 17.25 12C17.25 13.1046 18.1454 14 19.25 14V10ZM32.0833 14C33.1879 14 34.0833 13.1046 34.0833 12C34.0833 10.8954 33.1879 10 32.0833 10V14ZM44.9167 10C43.8121 10 42.9167 10.8954 42.9167 12C42.9167 13.1046 43.8121 14 44.9167 14V10ZM57.75 14C58.8546 14 59.75 13.1046 59.75 12C59.75 10.8954 58.8546 10 57.75 10V14ZM70.5833 10C69.4788 10 68.5833 10.8954 68.5833 12C68.5833 13.1046 69.4788 14 70.5833 14V10ZM83.4167 14C84.5212 14 85.4167 13.1046 85.4167 12C85.4167 10.8954 84.5212 10 83.4167 10V14ZM96.25 10C95.1454 10 94.25 10.8954 94.25 12C94.25 13.1046 95.1454 14 96.25 14V10ZM109.083 14C110.188 14 111.083 13.1046 111.083 12C111.083 10.8954 110.188 10 109.083 10V14ZM121.917 10C120.812 10 119.917 10.8954 119.917 12C119.917 13.1046 120.812 14 121.917 14V10ZM134.75 14C135.855 14 136.75 13.1046 136.75 12C136.75 10.8954 135.855 10 134.75 10V14ZM147.583 10C146.479 10 145.583 10.8954 145.583 12C145.583 13.1046 146.479 14 147.583 14V10ZM0 14H6.41667V10H0V14ZM19.25 14H32.0833V10H19.25V14ZM44.9167 14H57.75V10H44.9167V14ZM70.5833 14H83.4167V10H70.5833V14ZM96.25 14H109.083V10H96.25V14ZM121.917 14H134.75V10H121.917V14ZM147.583 14H154V10H147.583V14Z" fill="black"/>
</svg>
