<svg width="100" height="100" viewBox="0 0 100 100" fill="none" xmlns="http://www.w3.org/2000/svg">
<path d="M10 72.5H90" stroke="#219653" stroke-width="4" stroke-linecap="round" stroke-linejoin="round"/>
<path d="M10 82.5H90" stroke="#219653" stroke-width="4" stroke-linecap="round" stroke-linejoin="round"/>
<path d="M10 19.5C10 18.3954 10.8954 17.5 12 17.5H88C89.1046 17.5 90 18.3954 90 19.5V60.5C90 61.6046 89.1046 62.5 88 62.5H12C10.8954 62.5 10 61.6046 10 60.5V19.5Z" fill="#6FCF97" stroke="#6FCF97" stroke-width="4" stroke-linecap="round" stroke-linejoin="round"/>
<path fill-rule="evenodd" clip-rule="evenodd" d="M22.4313 17.5H12C10.8954 17.5 10 18.3954 10 19.5V29.9313C10.4104 29.9767 10.8275 30 11.25 30C17.4632 30 22.5 24.9632 22.5 18.75C22.5 18.3275 22.4767 17.9104 22.4313 17.5ZM22.4313 62.5H12C10.8954 62.5 10 61.6046 10 60.5V50.0687C10.4104 50.0233 10.8275 50 11.25 50C17.4632 50 22.5 55.0368 22.5 61.25C22.5 61.6725 22.4767 62.0896 22.4313 62.5ZM90 50.0687V60.5C90 61.6046 89.1046 62.5 88 62.5H77.5687C77.5233 62.0896 77.5 61.6725 77.5 61.25C77.5 55.0368 82.5368 50 88.75 50C89.1725 50 89.5896 50.0233 90 50.0687ZM77.5687 17.5H88C89.1046 17.5 90 18.3954 90 19.5V29.9313C89.5896 29.9767 89.1725 30 88.75 30C82.5368 30 77.5 24.9632 77.5 18.75C77.5 18.3275 77.5233 17.9104 77.5687 17.5Z" fill="#219653"/>
<path d="M22.4313 17.5L24.4192 17.2803C24.3072 16.2669 23.4509 15.5 22.4313 15.5V17.5ZM10 29.9313H8C8 30.9509 8.7669 31.8072 9.78025 31.9192L10 29.9313ZM22.4313 62.5V64.5C23.4509 64.5 24.3072 63.7331 24.4192 62.7197L22.4313 62.5ZM10 50.0687L9.78026 48.0808C8.7669 48.1928 8 49.0491 8 50.0687H10ZM90 50.0687H92C92 49.0491 91.2331 48.1928 90.2197 48.0808L90 50.0687ZM77.5687 62.5L75.5808 62.7198C75.6928 63.7331 76.5491 64.5 77.5687 64.5V62.5ZM77.5687 17.5V15.5C76.5491 15.5 75.6928 16.2669 75.5808 17.2802L77.5687 17.5ZM90 29.9313L90.2197 31.9192C91.2331 31.8072 92 30.9509 92 29.9313H90ZM12 19.5H22.4313V15.5H12V19.5ZM12 19.5V19.5V15.5C9.79086 15.5 8 17.2909 8 19.5H12ZM12 29.9313V19.5H8V29.9313H12ZM9.78025 31.9192C10.2635 31.9727 10.7539 32 11.25 32V28C10.901 28 10.5573 27.9808 10.2197 27.9434L9.78025 31.9192ZM11.25 32C18.5678 32 24.5 26.0678 24.5 18.75H20.5C20.5 23.8586 16.3586 28 11.25 28V32ZM24.5 18.75C24.5 18.2539 24.4727 17.7635 24.4192 17.2803L20.4434 17.7197C20.4808 18.0573 20.5 18.401 20.5 18.75H24.5ZM22.4313 60.5H12V64.5H22.4313V60.5ZM12 60.5H12H8C8 62.7091 9.79086 64.5 12 64.5V60.5ZM12 60.5V50.0687H8V60.5H12ZM10.2197 52.0566C10.5573 52.0192 10.9011 52 11.25 52V48C10.7539 48 10.2635 48.0274 9.78026 48.0808L10.2197 52.0566ZM11.25 52C16.3586 52 20.5 56.1414 20.5 61.25H24.5C24.5 53.9322 18.5678 48 11.25 48V52ZM20.5 61.25C20.5 61.599 20.4808 61.9427 20.4434 62.2803L24.4192 62.7197C24.4727 62.2365 24.5 61.7461 24.5 61.25H20.5ZM88 50.0687V60.5H92V50.0687H88ZM88 60.5V64.5C90.2091 64.5 92 62.7091 92 60.5H88ZM88 60.5H77.5687V64.5H88V60.5ZM79.5566 62.2802C79.5192 61.9427 79.5 61.5989 79.5 61.25H75.5C75.5 61.7461 75.5274 62.2365 75.5808 62.7198L79.5566 62.2802ZM79.5 61.25C79.5 56.1414 83.6414 52 88.75 52V48C81.4322 48 75.5 53.9322 75.5 61.25H79.5ZM88.75 52C89.0989 52 89.4427 52.0192 89.7803 52.0566L90.2197 48.0808C89.7365 48.0274 89.2461 48 88.75 48V52ZM77.5687 19.5H88V15.5H77.5687V19.5ZM88 19.5H92C92 17.2909 90.2091 15.5 88 15.5V19.5ZM88 19.5V29.9313H92V19.5H88ZM89.7803 27.9434C89.4427 27.9808 89.0989 28 88.75 28V32C89.2461 32 89.7365 31.9727 90.2197 31.9192L89.7803 27.9434ZM88.75 28C83.6414 28 79.5 23.8586 79.5 18.75H75.5C75.5 26.0678 81.4322 32 88.75 32V28ZM79.5 18.75C79.5 18.4011 79.5192 18.0573 79.5566 17.7198L75.5808 17.2802C75.5274 17.7635 75.5 18.2539 75.5 18.75H79.5Z" fill="#219653"/>
<path d="M44.3438 29.575C47.847 26.8782 52.7268 26.8782 56.2299 29.575C58.6258 31.4193 60.0297 34.2716 60.0297 37.2952V42.7048C60.0297 45.7284 58.6258 48.5807 56.2299 50.425C52.7268 53.1218 47.847 53.1218 44.3438 50.425C41.9479 48.5807 40.5441 45.7284 40.5441 42.7048V37.2952C40.5441 34.2716 41.9479 31.4193 44.3438 29.575Z" fill="#219653"/>
<path d="M24.269 36.525C25.4367 35.6261 27.0633 35.6261 28.231 36.525C29.0297 37.1398 29.4976 38.0905 29.4976 39.0984V40.9016C29.4976 41.9095 29.0297 42.8602 28.231 43.475C27.0633 44.3739 25.4367 44.3739 24.269 43.475C23.4703 42.8602 23.0024 41.9095 23.0024 40.9016V39.0984C23.0024 38.0905 23.4703 37.1398 24.269 36.525Z" fill="#219653"/>
<path d="M71.769 36.525C72.9367 35.6261 74.5633 35.6261 75.731 36.525C76.5297 37.1398 76.9976 38.0905 76.9976 39.0984V40.9016C76.9976 41.9095 76.5297 42.8602 75.731 43.475C74.5633 44.3739 72.9367 44.3739 71.769 43.475C70.9703 42.8602 70.5024 41.9095 70.5024 40.9016V39.0984C70.5024 38.0905 70.9703 37.1398 71.769 36.525Z" fill="#219653"/>
</svg>
