<svg width="116" height="116" viewBox="0 0 116 116" fill="none" xmlns="http://www.w3.org/2000/svg">
<path fill-rule="evenodd" clip-rule="evenodd" d="M51.375 29.725C51.375 27.3778 49.4722 25.475 47.125 25.475C44.7778 25.475 42.875 27.3778 42.875 29.725V56.7313V65.4313C42.875 67.9048 39.6669 68.8762 38.2948 66.8181L33.2612 59.2676C31.9592 57.3146 29.3205 56.7868 27.3675 58.0888C25.4145 59.3908 24.8867 62.0295 26.1887 63.9825L46.4887 94.4325C47.277 95.6149 48.6039 96.325 50.0249 96.325H81.9249C83.9951 96.325 85.764 94.8335 86.1138 92.7931L90.4639 67.4181C90.5046 67.1809 90.525 66.9407 90.525 66.7V55.825C90.525 53.4778 88.6222 51.575 86.275 51.575C83.9278 51.575 82.025 53.4778 82.025 55.825V66.3341C82.025 66.3369 82.0248 66.3398 82.0243 66.3426C82.0139 66.4029 81.9251 66.3953 81.9251 66.3341V58.0315C81.9251 57.6137 81.5864 57.275 81.1686 57.275H78.0188C77.7184 57.275 77.475 57.0316 77.475 56.7313V52.925C77.475 50.5778 75.5722 48.675 73.225 48.675C70.8778 48.675 68.975 50.5778 68.975 52.925V56.7313C68.975 57.0316 68.7316 57.275 68.4312 57.275H64.9688C64.6684 57.275 64.425 57.0316 64.425 56.7313V50.025C64.425 47.6778 62.5222 45.775 60.175 45.775C57.8278 45.775 55.925 47.6778 55.925 50.025V56.7313C55.925 57.0316 55.6816 57.275 55.3812 57.275H51.9188C51.6184 57.275 51.375 57.0316 51.375 56.7313V29.725Z" fill="#F2C94C"/>
</svg>
