<svg width="116" height="116" viewBox="0 0 116 116" fill="none" xmlns="http://www.w3.org/2000/svg">
<path d="M103.668 57.6819C104.864 56.6388 105.004 54.8232 103.922 53.6624C101.844 51.4322 99.5984 49.3518 97.2017 47.4404C89.8959 41.6143 81.3714 37.5091 72.2613 35.4297C63.1511 33.3504 53.6896 33.3504 44.5795 35.4297C35.4694 37.5091 26.9448 41.6143 19.639 47.4404C17.1471 49.4276 14.8189 51.5977 12.6716 53.9287C11.5966 55.0958 11.7475 56.9105 12.9493 57.9466L41.4257 82.4977C42.6387 83.5435 44.4578 83.3883 45.6715 82.3432C47.051 81.1554 48.5935 80.163 50.256 79.3984C52.7994 78.2286 55.5646 77.619 58.3641 77.6109C61.1637 77.6028 63.9323 78.1964 66.4825 79.3516C68.1494 80.1066 69.6975 81.09 71.0839 82.2699C72.3036 83.3079 74.1235 83.4526 75.3305 82.3998L103.668 57.6819Z" fill="white" stroke="#BDBDBD" stroke-width="5.8" stroke-linecap="square"/>
<path d="M32.9676 51.2522L31.6202 48.6842L31.6268 48.6808L32.9748 51.2484L32.9676 51.2522Z" stroke="#4F4F4F" stroke-width="5.8" stroke-linecap="round" stroke-linejoin="round"/>
<path d="M84.0242 48.6844L82.6768 51.2524L82.6696 51.2487L84.0176 48.681L84.0242 48.6844Z" stroke="#4F4F4F" stroke-width="5.8" stroke-linecap="round" stroke-linejoin="round"/>
<path d="M71.3101 43.8624L71.3172 43.8642L70.6235 46.68L70.6157 46.6781L71.3101 43.8624Z" stroke="#4F4F4F" stroke-width="5.8" stroke-linecap="round" stroke-linejoin="round"/>
<path d="M57.8259 42.2253L57.8186 42.2253L57.8182 45.1253H57.8263L57.8259 42.2253Z" stroke="#4F4F4F" stroke-width="5.8" stroke-linecap="round" stroke-linejoin="round"/>
<path d="M45.0288 46.678L44.3344 43.8623L44.3272 43.8641L45.0209 46.6799L45.0288 46.678Z" stroke="#4F4F4F" stroke-width="5.8" stroke-linecap="round" stroke-linejoin="round"/>
<path d="M57.8432 53.65V68.15" stroke="#EB5757" stroke-width="5.8" stroke-linecap="round" stroke-linejoin="round"/>
</svg>
