<svg width="311" height="124" viewBox="0 0 311 124" fill="none" xmlns="http://www.w3.org/2000/svg">
<rect x="0.484558" y="0.484375" width="310.031" height="123.031" stroke="black" stroke-width="0.96875"/>
<path d="M10.8015 69.4626L43.5417 83.1044" stroke="black" stroke-width="1.36418" stroke-linecap="round" stroke-linejoin="round"/>
<path d="M38.085 64.688L27.6814 52.9839C27.4101 52.6787 26.9332 52.6787 26.6618 52.9839L16.2582 64.688" stroke="black" stroke-width="1.36418" stroke-linecap="round" stroke-linejoin="round"/>
<path d="M38.085 87.879L27.6814 99.5831C27.4101 99.8883 26.9332 99.8883 26.6618 99.5831L16.2582 87.879" stroke="black" stroke-width="1.36418" stroke-linecap="round" stroke-linejoin="round"/>
<path d="M77.6763 90H66.7084V87.8719H70.037V53.9312H66.7084V51.803H78.222C79.3497 51.803 80.5866 51.9849 81.9326 52.3487C83.3149 52.7125 84.5882 53.2945 85.7523 54.0949C86.9164 54.8952 87.8986 55.932 88.6989 57.2052C89.4992 58.4784 89.8994 60.0063 89.8994 61.7888C89.8994 64.9173 88.899 67.4092 86.8982 69.2645C84.8974 71.0834 82.0417 71.9929 78.3312 71.9929H72.2742V87.8719H77.6763V90ZM72.2742 53.9312V69.8647H77.9492C79.8408 69.8647 81.4051 69.6101 82.6419 69.1008C83.9152 68.5551 84.9338 67.8821 85.6977 67.0818C86.4253 66.3179 86.9346 65.463 87.2256 64.5172C87.5166 63.5713 87.6621 62.6619 87.6621 61.7888C87.6621 60.7339 87.4075 59.7335 86.8982 58.7876C86.4253 57.8418 85.7705 57.0051 84.9338 56.2775C84.0243 55.5864 82.9875 55.0225 81.8234 54.586C80.6593 54.1494 79.3861 53.9312 78.0037 53.9312H72.2742ZM139.497 87.7082C138.041 88.5449 136.477 89.2179 134.804 89.7272C133.167 90.2001 131.421 90.4365 129.565 90.4365C126.873 90.4365 124.345 89.9272 121.981 88.9087C119.616 87.8901 117.561 86.4895 115.814 84.707C114.032 82.9608 112.631 80.9055 111.613 78.5409C110.594 76.1763 110.085 73.6481 110.085 70.9561C110.085 68.2641 110.594 65.7358 111.613 63.3713C112.631 60.9703 114.032 58.8786 115.814 57.0961C117.561 55.3499 119.616 53.9675 121.981 52.949C124.345 51.894 126.873 51.3665 129.565 51.3665C131.421 51.3665 133.167 51.603 134.804 52.0759C136.477 52.5488 138.06 53.2218 139.551 54.0949V60.2064H137.423V55.459C136.223 54.8406 134.949 54.3677 133.603 54.0403C132.294 53.6765 130.948 53.4946 129.565 53.4946C127.164 53.4946 124.927 53.9675 122.854 54.9134C120.78 55.8228 118.961 57.0779 117.397 58.6785C115.833 60.2428 114.596 62.098 113.686 64.2443C112.777 66.3543 112.322 68.6097 112.322 71.0107C112.322 73.3752 112.777 75.6125 113.686 77.7224C114.596 79.8323 115.833 81.6512 117.397 83.1791C118.925 84.7434 120.726 85.9984 122.799 86.9442C124.873 87.8537 127.092 88.3084 129.456 88.3084C131.057 88.3084 132.585 88.1083 134.04 87.7082C135.531 87.2716 136.932 86.6714 138.242 85.9075L139.497 87.7082ZM168.927 90H162.87V87.7627C162.87 87.3262 162.87 86.9261 162.87 86.5623C162.87 86.1621 162.87 85.7256 162.87 85.2527C162.616 85.9075 162.216 86.5441 161.67 87.1625C161.161 87.7446 160.542 88.272 159.815 88.745C159.051 89.2542 158.178 89.6544 157.195 89.9454C156.25 90.2365 155.231 90.382 154.14 90.382C152.612 90.382 151.193 90.1091 149.884 89.5635C148.61 89.0178 147.483 88.2539 146.5 87.2716C145.518 86.2894 144.754 85.1617 144.209 83.8885C143.663 82.6153 143.39 81.2329 143.39 79.7414C143.39 78.3226 143.663 76.9585 144.209 75.6489C144.754 74.3392 145.518 73.1933 146.5 72.2111C147.483 71.2653 148.61 70.5196 149.884 69.9739C151.193 69.3918 152.612 69.1008 154.14 69.1008C156.286 69.1008 158.123 69.6283 159.651 70.6833C161.179 71.7018 162.252 72.9205 162.87 74.3392C162.87 73.5753 162.889 72.7932 162.925 71.9929C162.961 71.1562 163.016 70.3377 163.089 69.5373H164.889V87.8719H168.927V90ZM154.14 71.2835C152.903 71.2835 151.757 71.5018 150.702 71.9383C149.647 72.3748 148.756 72.9933 148.028 73.7936C147.264 74.5575 146.664 75.4488 146.228 76.4674C145.827 77.486 145.627 78.5773 145.627 79.7414C145.627 80.9782 145.864 82.1242 146.337 83.1791C146.81 84.2341 147.464 85.1435 148.301 85.9075C149.065 86.635 149.938 87.1989 150.92 87.599C151.902 87.9992 152.976 88.1993 154.14 88.1993C155.304 88.1993 156.395 87.9992 157.414 87.599C158.432 87.1625 159.324 86.5623 160.088 85.7983C160.888 85.0344 161.506 84.1431 161.943 83.1245C162.416 82.0696 162.652 80.9419 162.652 79.7414C162.652 78.5409 162.416 77.4314 161.943 76.4128C161.506 75.3578 160.906 74.4484 160.142 73.6844C159.342 72.9205 158.432 72.3385 157.414 71.9383C156.395 71.5018 155.304 71.2835 154.14 71.2835ZM198.289 90H192.232V87.7627C192.232 87.3262 192.232 86.9261 192.232 86.5623C192.232 86.1621 192.232 85.7256 192.232 85.2527C191.978 85.9075 191.577 86.5441 191.032 87.1625C190.522 87.7446 189.904 88.272 189.176 88.745C188.413 89.2542 187.539 89.6544 186.557 89.9454C185.611 90.2365 184.593 90.382 183.502 90.382C181.974 90.382 180.555 90.1091 179.245 89.5635C177.972 89.0178 176.844 88.2539 175.862 87.2716C174.88 86.2894 174.116 85.1617 173.57 83.8885C173.025 82.6153 172.752 81.2329 172.752 79.7414C172.752 78.2863 173.025 76.9039 173.57 75.5943C174.116 74.2847 174.88 73.157 175.862 72.2111C176.844 71.2653 177.972 70.5196 179.245 69.9739C180.555 69.3918 181.974 69.1008 183.502 69.1008C184.52 69.1008 185.502 69.2463 186.448 69.5373C187.43 69.8284 188.303 70.2103 189.067 70.6833C189.831 71.1925 190.45 71.7382 190.923 72.3203C191.396 72.9023 191.778 73.5026 192.069 74.121C192.032 73.1388 192.014 72.3385 192.014 71.72C192.014 71.1016 192.014 70.3013 192.014 69.3191V51.2028H188.14V49.0747H194.251V87.8719H198.289V90ZM183.502 71.2835C182.265 71.2835 181.137 71.5018 180.118 71.9383C179.1 72.3748 178.209 72.9751 177.445 73.739C176.681 74.503 176.08 75.4124 175.644 76.4674C175.207 77.486 174.989 78.5773 174.989 79.7414C174.989 80.9419 175.207 82.0696 175.644 83.1245C176.117 84.1795 176.753 85.0708 177.554 85.7983C178.318 86.5623 179.191 87.1625 180.173 87.599C181.192 87.9992 182.301 88.1993 183.502 88.1993C184.666 88.1993 185.739 87.9992 186.721 87.599C187.74 87.1625 188.649 86.5623 189.449 85.7983C190.25 85.0708 190.868 84.1795 191.305 83.1245C191.778 82.0696 192.014 80.9419 192.014 79.7414C192.014 78.5409 191.778 77.4132 191.305 76.3582C190.832 75.2669 190.195 74.3392 189.395 73.5753C188.631 72.8477 187.74 72.2839 186.721 71.8837C185.702 71.4836 184.629 71.2835 183.502 71.2835ZM212.809 71.2835C211.426 71.2835 210.153 71.5745 208.989 72.1566C207.861 72.7386 206.915 73.5207 206.152 74.503C205.424 75.4488 204.915 76.5219 204.624 77.7224C204.333 78.8865 204.314 80.087 204.569 81.3238C207.043 80.3416 209.498 79.3776 211.936 78.4318C214.409 77.4496 216.883 76.4674 219.357 75.4852C218.702 74.2483 217.793 73.2479 216.628 72.484C215.501 71.6837 214.227 71.2835 212.809 71.2835ZM219.957 87.5445C219.011 88.4176 217.938 89.1087 216.738 89.618C215.537 90.1273 214.227 90.382 212.809 90.382C211.317 90.382 209.917 90.1091 208.607 89.5635C207.334 89.0178 206.206 88.2539 205.224 87.2716C204.242 86.2894 203.478 85.1617 202.932 83.8885C202.386 82.6153 202.114 81.2329 202.114 79.7414C202.114 78.2863 202.386 76.9039 202.932 75.5943C203.478 74.2847 204.242 73.157 205.224 72.2111C206.206 71.2653 207.334 70.5196 208.607 69.9739C209.917 69.3918 211.317 69.1008 212.809 69.1008C213.936 69.1008 215.01 69.3009 216.028 69.701C217.047 70.0648 217.956 70.6105 218.757 71.3381C219.52 71.9929 220.193 72.7932 220.776 73.739C221.358 74.6485 221.83 75.6489 222.194 76.7402C219.357 77.8679 216.519 78.9775 213.682 80.0688C210.881 81.1601 208.061 82.2879 205.224 83.452C205.879 84.8707 206.879 86.0166 208.225 86.8897C209.571 87.7627 211.099 88.1993 212.809 88.1993C213.936 88.1993 214.991 87.9992 215.974 87.599C216.956 87.1989 217.829 86.635 218.593 85.9075L219.957 87.5445ZM236.731 90H226.2V87.8719H230.456V71.6655H226.527V69.5373H232.257L232.311 71.5018C232.348 72.1202 232.384 72.684 232.42 73.1933C232.457 73.6663 232.493 74.2119 232.53 74.8304C233.257 73.1206 234.403 71.7564 235.967 70.7378C237.568 69.6829 239.405 69.1372 241.479 69.1008C243.334 69.1008 244.844 69.6101 246.008 70.6287C247.172 71.6109 247.845 72.9205 248.027 74.5575C248.827 72.9205 249.991 71.6109 251.519 70.6287C253.083 69.6465 254.866 69.1372 256.867 69.1008C258.904 69.1008 260.486 69.6647 261.614 70.7924C262.778 71.9201 263.396 73.3934 263.469 75.2123V87.8719H267.507V90H257.03V87.8719H261.232V75.8126C261.159 74.6121 260.723 73.5935 259.922 72.7568C259.158 71.8837 258.012 71.4108 256.485 71.3381C255.393 71.3381 254.338 71.52 253.32 71.8837C252.337 72.2475 251.464 72.7386 250.7 73.357C249.936 74.0118 249.318 74.794 248.845 75.7034C248.372 76.5765 248.118 77.5405 248.081 78.5955V87.8719H252.119V90H241.588V87.8719H245.844V75.8126C245.771 74.6121 245.335 73.5935 244.534 72.7568C243.77 71.8837 242.625 71.4108 241.097 71.3381C239.969 71.3381 238.896 71.52 237.877 71.8837C236.859 72.2475 235.986 72.7568 235.258 73.4116C234.458 74.1028 233.821 74.9031 233.348 75.8126C232.912 76.722 232.693 77.7224 232.693 78.8137V87.8719H236.731V90ZM284.977 103.642H274.445V101.514H279.083C279.993 99.5856 280.921 97.6758 281.866 95.7841C282.849 93.8925 283.813 92.0008 284.758 90.1091C283.194 87.0534 281.648 83.9976 280.12 80.9419C278.592 77.8861 277.064 74.794 275.537 71.6655H271.335V69.5373H281.43V71.6655H277.938C279.283 74.4302 280.629 77.1585 281.975 79.8505C283.358 82.5425 284.686 85.2527 285.959 87.981C287.159 85.3254 288.433 82.6334 289.779 79.9051C291.161 77.1767 292.543 74.4302 293.926 71.6655H290.761V69.5373H300.31V71.6655H296.327C293.853 76.6856 291.379 81.6694 288.905 86.6168C286.432 91.5279 283.958 96.4935 281.484 101.514H284.977V103.642Z" fill="black"/>
<path d="M1.00018 22L310 22" stroke="black" stroke-width="0.96875" stroke-linecap="round"/>
<path d="M291.579 8L298.579 15" stroke="black" stroke-linecap="round"/>
<path d="M268 12.287H277.9" stroke="black" stroke-linecap="round"/>
<path d="M298.579 8L291.579 15" stroke="black" stroke-linecap="round"/>
</svg>
